<?xml version="1.0" encoding="UTF-8" standalone="no"?>
<!DOCTYPE svg PUBLIC "-//W3C//DTD SVG 1.1//EN"
 "http://www.w3.org/Graphics/SVG/1.1/DTD/svg11.dtd">
<!-- Generated by graphviz version 12.2.1 (20241206.2353)
 -->
<!-- Title: ExprTreeBefore Pages: 1 -->
<svg width="183pt" height="269pt"
 viewBox="0.00 0.00 183.16 268.80" xmlns="http://www.w3.org/2000/svg" xmlns:xlink="http://www.w3.org/1999/xlink">
<g id="graph0" class="graph" transform="scale(1 1) rotate(0) translate(14.4 254.4)">
<title>ExprTreeBefore</title>
<!-- plus0 -->
<g id="node1" class="node">
<title>plus0</title>
<polygon fill="#eaf3ff" stroke="#2f5e9e" stroke-width="1.2" points="74.68,-240 20.68,-240 20.68,-204 74.68,-204 74.68,-240"/>
<text text-anchor="middle" x="47.68" y="-215.05" font-family="Helvetica,sans-Serif" font-size="16.00">Plus</text>
</g>
<!-- three -->
<g id="node2" class="node">
<title>three</title>
<polygon fill="#eaf3ff" stroke="#2f5e9e" stroke-width="1.2" points="27.36,-172 0,-172 0,-136 27.36,-136 27.36,-172"/>
<text text-anchor="middle" x="13.68" y="-147.05" font-family="Helvetica,sans-Serif" font-size="16.00">3</text>
</g>
<!-- plus0&#45;&gt;three -->
<g id="edge1" class="edge">
<title>plus0&#45;&gt;three</title>
<path fill="none" stroke="#4f78ad" stroke-width="1.2" d="M38.75,-203.66C35.42,-197.19 31.55,-189.68 27.86,-182.52"/>
<polygon fill="#4f78ad" stroke="#4f78ad" stroke-width="1.2" points="31.19,-181.36 23.5,-174.07 24.97,-184.56 31.19,-181.36"/>
</g>
<!-- times0 -->
<g id="node3" class="node">
<title>times0</title>
<polygon fill="#eaf3ff" stroke="#2f5e9e" stroke-width="1.2" points="111.43,-172 51.93,-172 51.93,-136 111.43,-136 111.43,-172"/>
<text text-anchor="middle" x="81.68" y="-147.05" font-family="Helvetica,sans-Serif" font-size="16.00">Times</text>
</g>
<!-- plus0&#45;&gt;times0 -->
<g id="edge2" class="edge">
<title>plus0&#45;&gt;times0</title>
<path fill="none" stroke="#4f78ad" stroke-width="1.2" d="M56.61,-203.66C59.94,-197.19 63.81,-189.68 67.5,-182.52"/>
<polygon fill="#4f78ad" stroke="#4f78ad" stroke-width="1.2" points="70.39,-184.56 71.86,-174.07 64.17,-181.36 70.39,-184.56"/>
</g>
<!-- a0 -->
<g id="node4" class="node">
<title>a0</title>
<polygon fill="#eaf3ff" stroke="#2f5e9e" stroke-width="1.2" points="62.36,-104 35,-104 35,-68 62.36,-68 62.36,-104"/>
<text text-anchor="middle" x="48.68" y="-79.05" font-family="Helvetica,sans-Serif" font-size="16.00">a</text>
</g>
<!-- times0&#45;&gt;a0 -->
<g id="edge3" class="edge">
<title>times0&#45;&gt;a0</title>
<path fill="none" stroke="#4f78ad" stroke-width="1.2" d="M73.01,-135.66C69.78,-129.19 66.02,-121.68 62.44,-114.52"/>
<polygon fill="#4f78ad" stroke="#4f78ad" stroke-width="1.2" points="65.82,-113.46 58.22,-106.08 59.56,-116.59 65.82,-113.46"/>
</g>
<!-- plus1 -->
<g id="node5" class="node">
<title>plus1</title>
<polygon fill="#eaf3ff" stroke="#2f5e9e" stroke-width="1.2" points="141.68,-104 87.68,-104 87.68,-68 141.68,-68 141.68,-104"/>
<text text-anchor="middle" x="114.68" y="-79.05" font-family="Helvetica,sans-Serif" font-size="16.00">Plus</text>
</g>
<!-- times0&#45;&gt;plus1 -->
<g id="edge4" class="edge">
<title>times0&#45;&gt;plus1</title>
<path fill="none" stroke="#4f78ad" stroke-width="1.2" d="M90.35,-135.66C93.58,-129.19 97.34,-121.68 100.92,-114.52"/>
<polygon fill="#4f78ad" stroke="#4f78ad" stroke-width="1.2" points="103.8,-116.59 105.14,-106.08 97.54,-113.46 103.8,-116.59"/>
</g>
<!-- b0 -->
<g id="node6" class="node">
<title>b0</title>
<polygon fill="#eaf3ff" stroke="#2f5e9e" stroke-width="1.2" points="102.36,-36 75,-36 75,0 102.36,0 102.36,-36"/>
<text text-anchor="middle" x="88.68" y="-11.05" font-family="Helvetica,sans-Serif" font-size="16.00">b</text>
</g>
<!-- plus1&#45;&gt;b0 -->
<g id="edge5" class="edge">
<title>plus1&#45;&gt;b0</title>
<path fill="none" stroke="#4f78ad" stroke-width="1.2" d="M107.85,-67.66C105.39,-61.42 102.55,-54.2 99.82,-47.27"/>
<polygon fill="#4f78ad" stroke="#4f78ad" stroke-width="1.2" points="103.14,-46.17 96.22,-38.14 96.63,-48.73 103.14,-46.17"/>
</g>
<!-- c0 -->
<g id="node7" class="node">
<title>c0</title>
<polygon fill="#eaf3ff" stroke="#2f5e9e" stroke-width="1.2" points="154.36,-36 127,-36 127,0 154.36,0 154.36,-36"/>
<text text-anchor="middle" x="140.68" y="-11.05" font-family="Helvetica,sans-Serif" font-size="16.00">c</text>
</g>
<!-- plus1&#45;&gt;c0 -->
<g id="edge6" class="edge">
<title>plus1&#45;&gt;c0</title>
<path fill="none" stroke="#4f78ad" stroke-width="1.2" d="M121.51,-67.66C123.97,-61.42 126.81,-54.2 129.54,-47.27"/>
<polygon fill="#4f78ad" stroke="#4f78ad" stroke-width="1.2" points="132.73,-48.73 133.14,-38.14 126.22,-46.17 132.73,-48.73"/>
</g>
</g>
</svg>
